HIERARCHY
ROOT Hips
{
	OFFSET 0.000000 83.214638 0.000000
	CHANNELS 6 Xposition Yposition Zposition Xrotation Yrotation Zrotation
	JOINT Pelvis
	{
		OFFSET 0.000000 0.000000 0.000000
		CHANNELS 3 Xrotation Yrotation Zrotation
		JOINT LeftUpLeg
		{
			OFFSET 8.479700 -4.795502 -0.379100
			CHANNELS 3 Xrotation Yrotation Zrotation
			JOINT LeftLeg
			{
				OFFSET 0.024144 -32.555107 0.112900
				CHANNELS 3 Xrotation Yrotation Zrotation
				JOINT LeftFoot
				{
					OFFSET -0.024144 -32.638630 -3.012600
					CHANNELS 3 Xrotation Yrotation Zrotation
					JOINT LeftToeBase
					{
						OFFSET 0.970200 -13.225400 11.864200
						CHANNELS 3 Xrotation Yrotation Zrotation
						End Site
						{
							OFFSET 0.000000 12.319262 0.000000
						}
					}
					JOINT LFootTongue
					{
						OFFSET 1.142400 -1.059800 6.665200
						CHANNELS 3 Xrotation Yrotation Zrotation
						End Site
						{
							OFFSET 0.000000 12.319262 0.000000
						}
					}
				}
				JOINT LeftPantLeg
				{
					OFFSET 0.918482 -16.533964 -2.284700
					CHANNELS 3 Xrotation Yrotation Zrotation
					End Site
					{
						OFFSET 0.350399 24.744368 0.000000
					}
				}
			}
		}
		JOINT RightUpLeg
		{
			OFFSET -8.479700 -4.795502 -0.379100
			CHANNELS 3 Xrotation Yrotation Zrotation
			JOINT RightLeg
			{
				OFFSET -0.023144 -32.555092 0.112900
				CHANNELS 3 Xrotation Yrotation Zrotation
				JOINT RightFoot
				{
					OFFSET 0.023144 -32.638641 -3.012700
					CHANNELS 3 Xrotation Yrotation Zrotation
					JOINT RightToeBase
					{
						OFFSET -0.970200 -13.225400 11.864200
						CHANNELS 3 Xrotation Yrotation Zrotation
						End Site
						{
							OFFSET 0.000000 12.319244 0.000000
						}
					}
					JOINT RFootTongue
					{
						OFFSET -1.142200 -1.059800 6.665200
						CHANNELS 3 Xrotation Yrotation Zrotation
						End Site
						{
							OFFSET 0.000000 12.319243 0.000000
						}
					}
				}
				JOINT RightPantLeg
				{
					OFFSET -0.919482 -16.533978 -2.284800
					CHANNELS 3 Xrotation Yrotation Zrotation
					End Site
					{
						OFFSET -0.350400 24.744419 0.000000
					}
				}
			}
		}
	}
	JOINT Spine
	{
		OFFSET 0.000000 7.722000 1.166200
		CHANNELS 3 Xrotation Yrotation Zrotation
		JOINT Spine1
		{
			OFFSET 0.000000 12.024101 0.248800
			CHANNELS 3 Xrotation Yrotation Zrotation
			JOINT Spine2
			{
				OFFSET 0.000000 11.502998 -0.491200
				CHANNELS 3 Xrotation Yrotation Zrotation
				JOINT Neck
				{
					OFFSET 0.000000 18.430702 -3.123100
					CHANNELS 3 Xrotation Yrotation Zrotation
					JOINT Head
					{
						OFFSET 0.000000 9.051102 1.034000
						CHANNELS 3 Xrotation Yrotation Zrotation
						JOINT HairB
						{
							OFFSET 0.208400 24.786102 24.822300
							CHANNELS 3 Xrotation Yrotation Zrotation
							End Site
							{
								OFFSET 0.000000 32.263779 0.000000
							}
						}
						JOINT HairA
						{
							OFFSET -7.081100 24.428299 23.196600
							CHANNELS 3 Xrotation Yrotation Zrotation
							End Site
							{
								OFFSET 0.000000 32.263779 0.000000
							}
						}
						JOINT Hat
						{
							OFFSET 16.728800 15.048294 -15.439601
							CHANNELS 3 Xrotation Yrotation Zrotation
							End Site
							{
								OFFSET 0.000000 32.263779 0.000000
							}
						}
					}
				}
				JOINT LeftShoulder
				{
					OFFSET 6.197800 13.665199 -4.064700
					CHANNELS 3 Xrotation Yrotation Zrotation
					JOINT LeftArm
					{
						OFFSET 7.778100 -0.187103 -1.709300
						CHANNELS 3 Xrotation Yrotation Zrotation
						JOINT LeftForeArm
						{
							OFFSET 22.049376 0.000000 0.000000
							CHANNELS 3 Xrotation Yrotation Zrotation
							JOINT LeftHand
							{
								OFFSET 23.009392 0.000000 0.000000
								CHANNELS 3 Xrotation Yrotation Zrotation
								JOINT LeftHandThumb1
								{
									OFFSET 3.507191 -2.063065 3.133727
									CHANNELS 3 Xrotation Yrotation Zrotation
									JOINT LeftHandThumb2
									{
										OFFSET 3.101337 -1.790558 1.790558
										CHANNELS 3 Xrotation Yrotation Zrotation
										JOINT LeftHandThumb3
										{
											OFFSET 3.058640 -1.765907 1.765906
											CHANNELS 3 Xrotation Yrotation Zrotation
											End Site
											{
												OFFSET -0.415260 3.926476 -0.049563
											}
										}
									}
								}
								JOINT LeftHandIndex1
								{
									OFFSET 11.334419 -0.901459 3.706815
									CHANNELS 3 Xrotation Yrotation Zrotation
									JOINT LeftHandIndex2
									{
										OFFSET 3.283112 0.000000 0.000000
										CHANNELS 3 Xrotation Yrotation Zrotation
										JOINT LeftHandIndex3
										{
											OFFSET 3.323853 0.000000 0.000000
											CHANNELS 3 Xrotation Yrotation Zrotation
											End Site
											{
												OFFSET -1.135597 3.097809 0.402452
											}
										}
									}
								}
								JOINT LeftHandMiddle1
								{
									OFFSET 11.335861 0.000000 0.000000
									CHANNELS 3 Xrotation Yrotation Zrotation
									JOINT LeftHandMiddle2
									{
										OFFSET 3.410492 0.000000 0.000000
										CHANNELS 3 Xrotation Yrotation Zrotation
										JOINT LeftHandMiddle3
										{
											OFFSET 3.312172 0.000000 0.000000
											CHANNELS 3 Xrotation Yrotation Zrotation
											End Site
											{
												OFFSET -1.150200 3.080154 0.400270
											}
										}
									}
								}
								JOINT LeftHandRing1
								{
									OFFSET 11.514786 -0.013176 -3.003090
									CHANNELS 3 Xrotation Yrotation Zrotation
									JOINT LeftHandRing2
									{
										OFFSET 3.053307 0.000000 0.000000
										CHANNELS 3 Xrotation Yrotation Zrotation
										JOINT LeftHandRing3
										{
											OFFSET 3.295807 0.000000 0.000000
											CHANNELS 3 Xrotation Yrotation Zrotation
											End Site
											{
												OFFSET -1.281006 3.013344 0.375733
											}
										}
									}
								}
								JOINT LeftHandPinky1
								{
									OFFSET 10.518692 -0.960396 -5.730441
									CHANNELS 3 Xrotation Yrotation Zrotation
									JOINT LeftHandPinky2
									{
										OFFSET 2.861649 0.000000 0.000000
										CHANNELS 3 Xrotation Yrotation Zrotation
										JOINT LeftHandPinky3
										{
											OFFSET 2.863380 0.000000 0.000000
											CHANNELS 3 Xrotation Yrotation Zrotation
											End Site
											{
												OFFSET -0.843597 2.711159 0.369971
											}
										}
									}
								}
							}
							JOINT LSleeve
							{
								OFFSET 6.676277 -0.344902 -1.011730
								CHANNELS 3 Xrotation Yrotation Zrotation
								End Site
								{
									OFFSET 0.000000 14.885353 0.000000
								}
							}
						}
					}
				}
				JOINT RightShoulder
				{
					OFFSET -6.197800 13.665199 -4.064700
					CHANNELS 3 Xrotation Yrotation Zrotation
					JOINT RightArm
					{
						OFFSET -7.778100 -0.187103 -1.709300
						CHANNELS 3 Xrotation Yrotation Zrotation
						JOINT RightForeArm
						{
							OFFSET -22.049376 0.000000 0.000000
							CHANNELS 3 Xrotation Yrotation Zrotation
							JOINT RightHand
							{
								OFFSET -23.009392 0.000000 0.000000
								CHANNELS 3 Xrotation Yrotation Zrotation
								JOINT RightHandThumb1
								{
									OFFSET -3.507191 -2.063065 3.133727
									CHANNELS 3 Xrotation Yrotation Zrotation
									JOINT RightHandThumb2
									{
										OFFSET -3.101337 -1.790558 1.790558
										CHANNELS 3 Xrotation Yrotation Zrotation
										JOINT RightHandThumb3
										{
											OFFSET -3.058640 -1.765907 1.765906
											CHANNELS 3 Xrotation Yrotation Zrotation
											End Site
											{
												OFFSET 0.415260 3.926476 -0.049563
											}
										}
									}
								}
								JOINT RightHandIndex1
								{
									OFFSET -11.334419 -0.901459 3.706815
									CHANNELS 3 Xrotation Yrotation Zrotation
									JOINT RightHandIndex2
									{
										OFFSET -3.283112 0.000000 0.000000
										CHANNELS 3 Xrotation Yrotation Zrotation
										JOINT RightHandIndex3
										{
											OFFSET -3.323853 0.000000 0.000000
											CHANNELS 3 Xrotation Yrotation Zrotation
											End Site
											{
												OFFSET 1.135597 3.097809 0.402452
											}
										}
									}
								}
								JOINT RightHandMiddle1
								{
									OFFSET -11.335861 0.000000 0.000000
									CHANNELS 3 Xrotation Yrotation Zrotation
									JOINT RightHandMiddle2
									{
										OFFSET -3.410492 0.000000 0.000000
										CHANNELS 3 Xrotation Yrotation Zrotation
										JOINT RightHandMiddle3
										{
											OFFSET -3.312172 0.000000 0.000000
											CHANNELS 3 Xrotation Yrotation Zrotation
											End Site
											{
												OFFSET 1.150200 3.080154 0.400270
											}
										}
									}
								}
								JOINT RightHandRing1
								{
									OFFSET -11.514786 -0.013176 -3.003090
									CHANNELS 3 Xrotation Yrotation Zrotation
									JOINT RightHandRing2
									{
										OFFSET -3.053307 0.000000 0.000000
										CHANNELS 3 Xrotation Yrotation Zrotation
										JOINT RightHandRing3
										{
											OFFSET -3.295807 0.000000 0.000000
											CHANNELS 3 Xrotation Yrotation Zrotation
											End Site
											{
												OFFSET 1.281006 3.013344 0.375733
											}
										}
									}
								}
								JOINT RightHandPinky1
								{
									OFFSET -10.518692 -0.960396 -5.730441
									CHANNELS 3 Xrotation Yrotation Zrotation
									JOINT RightHandPinky2
									{
										OFFSET -2.861649 0.000000 0.000000
										CHANNELS 3 Xrotation Yrotation Zrotation
										JOINT RightHandPinky3
										{
											OFFSET -2.863380 0.000000 0.000000
											CHANNELS 3 Xrotation Yrotation Zrotation
											End Site
											{
												OFFSET 0.843597 2.711159 0.369971
											}
										}
									}
								}
							}
							JOINT RSleeve
							{
								OFFSET -6.676277 -0.344902 -1.011730
								CHANNELS 3 Xrotation Yrotation Zrotation
								End Site
								{
									OFFSET 0.000000 14.885353 0.000000
								}
							}
						}
					}
				}
				JOINT Backpack
				{
					OFFSET 0.000000 -2.471497 36.677502
					CHANNELS 3 Xrotation Yrotation Zrotation
					End Site
					{
						OFFSET 0.000000 20.427315 0.000000
					}
				}
				JOINT Hood
				{
					OFFSET 0.000000 18.754097 -10.431000
					CHANNELS 3 Xrotation Yrotation Zrotation
					JOINT Hood1
					{
						OFFSET 0.000000 -5.011002 -7.685901
						CHANNELS 3 Xrotation Yrotation Zrotation
						End Site
						{
							OFFSET 0.000000 9.175140 0.000000
						}
					}
				}
				JOINT LHoodieString
				{
					OFFSET 5.250500 16.397697 3.089900
					CHANNELS 3 Xrotation Yrotation Zrotation
					JOINT LHoodieString1
					{
						OFFSET 0.257700 -6.364304 3.694600
						CHANNELS 3 Xrotation Yrotation Zrotation
						JOINT LHoodieString2
						{
							OFFSET 0.000000 -9.643799 2.679100
							CHANNELS 3 Xrotation Yrotation Zrotation
							End Site
							{
								OFFSET 0.000000 10.009018 0.000000
							}
						}
					}
				}
				JOINT RHoodieString
				{
					OFFSET -5.250500 16.397697 3.089900
					CHANNELS 3 Xrotation Yrotation Zrotation
					JOINT RHoodieString1
					{
						OFFSET -0.257700 -6.364304 3.694600
						CHANNELS 3 Xrotation Yrotation Zrotation
						JOINT RHoodieString2
						{
							OFFSET 0.000000 -9.643799 2.679100
							CHANNELS 3 Xrotation Yrotation Zrotation
							End Site
							{
								OFFSET 0.000000 10.009018 0.000000
							}
						}
					}
				}
			}
			JOINT LBackpack_Strap
			{
				OFFSET 15.223200 -7.719803 -6.610900
				CHANNELS 3 Xrotation Yrotation Zrotation
				End Site
				{
					OFFSET 0.000000 16.040596 0.000000
				}
			}
			JOINT RBackpack_Strap
			{
				OFFSET -15.223000 -7.719803 -6.610900
				CHANNELS 3 Xrotation Yrotation Zrotation
				End Site
				{
					OFFSET 0.000000 16.040596 0.000000
				}
			}
		}
	}
	JOINT BoyFacialAnim_Joint
	{
		OFFSET 1.000000 -82.208099 -1.550900
		CHANNELS 3 Xrotation Yrotation Zrotation
		End Site
		{
			OFFSET 0.000000 30.012791 0.000000
		}
	}
}
MOTION
Frames: 5
Frame Time: 0.033333
32.413109 77.049477 11.403970 -21.839079 -54.180359 -19.313118 -0.000000 -0.000001 -0.000000 -20.445430 43.821510 5.615568 30.476792 5.441644 -6.111667 -7.197027 13.380187 22.324325 -0.000000 -0.000000 -0.000000 -0.000000 -0.000000 -0.000000 -0.000000 0.000000 -0.000001 14.968778 -16.609295 9.578218 34.210713 -10.787544 -0.657624 -24.569592 -12.603775 -3.349935 -0.000000 -0.000000 -0.000000 -0.000000 -0.000000 -0.000000 0.000002 -0.000000 0.000000 18.348275 8.754444 3.999097 4.666985 0.151478 -5.990543 11.981590 -3.376064 -1.738750 1.262589 7.884962 0.599486 -5.628167 23.229839 11.470400 0.000001 -0.000001 0.000000 0.000001 -0.000001 0.000000 0.000001 -0.000001 0.000000 -37.542128 -4.617919 2.139979 -36.304966 2.708256 -58.369868 0.000097 -75.740726 0.000101 -114.280164 0.116412 42.793755 2.215942 2.382448 2.816239 19.473192 -1.474937 7.636936 -0.000001 0.000001 0.000002 -1.514372 2.494616 -39.168007 2.946069 5.081145 -60.188740 -0.000002 -0.000000 -0.000004 0.405919 5.507050 -52.453162 3.387145 5.308621 -65.057456 -0.000001 0.000000 0.000000 -0.074373 5.736795 -61.061413 4.344252 5.654374 -75.051758 0.000000 -0.000001 -0.000001 0.440949 6.335424 -66.100836 4.179551 5.608053 -73.373341 -0.000002 -0.000001 -0.000004 0.000000 0.000000 -0.000002 -40.906051 -8.327351 -8.450548 -46.875346 51.027790 112.529825 0.002624 96.722131 -0.002582 -47.569433 -26.037904 -19.427216 8.377146 -4.904147 11.021994 21.620195 -18.183890 -18.379204 -0.000001 0.000001 0.000000 -1.064341 1.466023 14.586031 1.265095 -3.192964 43.219675 -0.000001 0.000002 -0.000001 3.413052 -7.186279 51.650242 6.296828 -4.359579 110.634667 -0.000000 -0.000000 0.000001 -3.349036 -2.600433 57.010564 5.440855 -4.590888 99.698147 0.000000 -0.000000 0.000004 -3.996444 -3.303933 64.593850 4.058857 -4.618676 82.610503 -0.000000 -0.000000 0.000000 -0.000001 0.000002 -0.000001 0.000001 -0.000002 0.000000 0.000001 -0.000002 0.000000 0.000001 -0.000002 0.000000 0.000001 -0.000002 0.000000 0.000001 -0.000002 0.000001 -0.000000 0.000001 -0.000000 0.000001 -0.000002 0.000000 0.000001 -0.000002 0.000001 -0.000000 0.000001 -0.000000 -0.000000 -0.000000 0.000001 -0.000000 -0.000000 0.000001 -0.000000 -0.000001 -0.000000 
35.857353 77.092644 10.693459 -20.105157 -53.389167 -18.285736 0.000000 0.000002 0.000000 -24.585592 43.081476 7.307248 32.942293 1.848189 -5.744658 -2.964817 5.486369 15.352033 0.000000 0.000000 -0.000000 0.000000 0.000000 -0.000000 0.000001 -0.000000 -0.000002 13.828756 -16.679030 10.976361 31.167441 -8.808962 0.557682 -29.651111 -15.087610 -11.798173 -0.000000 0.000000 0.000001 -0.000000 0.000000 0.000001 0.000000 0.000001 0.000000 18.439779 9.001114 4.899570 4.290113 0.117606 -6.231527 11.842822 -3.534406 -1.834784 1.046267 7.750092 0.763992 -5.918318 22.737770 11.592223 -0.000000 0.000000 -0.000000 -0.000000 0.000000 -0.000000 -0.000000 0.000000 -0.000000 -37.543651 -4.694330 2.148872 -37.321363 1.697187 -58.242601 -0.000006 -75.182235 0.000003 -114.321575 0.172643 42.673639 2.134591 2.141972 2.804536 19.473192 -1.474936 7.636930 -0.000003 0.000002 0.000002 -1.559942 2.448544 -39.249050 2.946182 5.081212 -60.190229 -0.000005 -0.000002 -0.000000 0.405919 5.507057 -52.453162 3.387146 5.308620 -65.057456 0.000004 0.000000 -0.000001 -0.074375 5.736805 -61.061420 4.353975 5.656948 -75.150311 -0.000002 0.000000 0.000001 0.665356 6.421723 -65.891859 4.209768 5.616938 -73.682360 -0.000001 0.000001 -0.000002 0.000002 0.000003 0.000004 -40.971341 -8.338027 -8.769305 -46.855910 50.375172 112.576441 0.001131 96.880858 -0.001137 -47.133807 -25.619690 -19.399551 8.377148 -4.904147 11.021993 21.620189 -18.183890 -18.379206 0.000001 0.000001 -0.000002 -1.068987 1.458711 14.657717 1.284335 -3.213268 43.563937 -0.000001 -0.000001 0.000003 3.413052 -7.186279 51.650249 6.296828 -4.359579 110.634673 0.000001 0.000002 -0.000004 -3.349034 -2.600433 57.010561 5.440857 -4.590887 99.698147 -0.000000 0.000000 -0.000001 -3.996445 -3.303933 64.593843 4.058857 -4.618673 82.610510 -0.000000 -0.000000 0.000004 0.000001 -0.000001 0.000001 -0.000000 0.000002 -0.000000 -0.000000 0.000002 -0.000000 -0.000000 0.000002 -0.000000 -0.000000 0.000002 -0.000000 -0.000000 0.000002 -0.000000 -0.000000 -0.000001 -0.000000 -0.000000 0.000002 -0.000000 -0.000000 0.000002 -0.000000 -0.000000 -0.000001 -0.000000 -0.000000 -0.000001 0.000000 -0.000000 -0.000001 0.000000 0.000000 0.000002 0.000000 
39.322689 77.184433 10.038567 -19.028321 -52.840662 -17.371681 -0.000000 -0.000002 -0.000000 -27.666120 40.498002 10.514083 34.868573 -2.621152 -7.052111 1.104524 -5.117788 0.470160 -0.000000 0.000001 0.000000 -0.000000 0.000001 0.000000 -0.000000 0.000002 -0.000002 10.454000 -16.185701 10.898094 31.310885 -9.669628 0.108969 -30.971370 -15.819206 -12.935344 -0.000000 0.000000 -0.000000 -0.000000 0.000000 -0.000000 0.000001 0.000000 -0.000000 19.042897 9.235464 5.126191 3.870081 0.104742 -6.418003 11.662160 -3.662037 -1.881208 0.796894 7.683090 0.863643 -6.280940 22.467583 11.849277 0.000000 -0.000002 0.000002 0.000000 -0.000002 0.000002 0.000000 -0.000002 0.000002 -37.546752 -4.747078 2.077994 -38.490448 1.065251 -58.129513 0.000053 -74.615083 0.000048 -114.049515 0.643240 42.747227 2.053351 1.901407 2.792720 19.473192 -1.474933 7.636931 -0.000001 0.000000 0.000002 -1.605653 2.402567 -39.330114 2.946321 5.081298 -60.191684 0.000001 0.000001 -0.000003 0.405919 5.507061 -52.453165 3.387145 5.308623 -65.057463 0.000007 0.000001 0.000000 -0.074375 5.736810 -61.061420 4.363690 5.659486 -75.248945 0.000000 -0.000001 -0.000002 0.889079 6.509680 -65.683108 4.240056 5.625676 -73.991419 -0.000007 -0.000003 -0.000001 -0.000001 0.000003 0.000002 -40.992658 -8.325226 -8.863076 -47.067844 49.855969 112.867845 0.000676 96.860388 -0.000658 -46.710007 -25.169913 -19.453576 8.377146 -4.904148 11.021994 21.620194 -18.183888 -18.379202 0.000002 0.000002 -0.000001 -1.073663 1.451348 14.729407 1.303678 -3.233457 43.908196 -0.000001 -0.000001 0.000003 3.413052 -7.186279 51.650242 6.296830 -4.359580 110.634673 0.000001 0.000001 -0.000002 -3.349036 -2.600433 57.010564 5.440858 -4.590888 99.698147 0.000000 -0.000000 0.000000 -3.996443 -3.303933 64.593850 4.058857 -4.618673 82.610503 -0.000001 0.000000 -0.000001 0.000000 -0.000005 0.000001 -0.000002 -0.000001 0.000001 -0.000002 -0.000001 0.000001 -0.000002 -0.000001 0.000001 -0.000002 -0.000001 0.000001 -0.000002 -0.000001 0.000001 -0.000001 0.000002 -0.000000 -0.000002 -0.000001 0.000001 -0.000002 -0.000001 0.000001 -0.000001 0.000002 -0.000000 -0.000000 0.000001 0.000000 -0.000000 0.000001 0.000000 -0.000000 -0.000002 -0.000000 
42.919048 77.775436 9.422239 -18.783118 -52.458090 -16.412695 -0.000000 -0.000000 0.000000 -25.592936 37.909374 8.853920 32.996060 -0.146093 -7.085423 2.648730 -7.097361 0.080740 -0.000000 -0.000001 -0.000000 -0.000000 -0.000001 -0.000000 0.000001 0.000001 -0.000001 6.665484 -18.388809 7.004321 32.872184 -9.765335 1.451506 -29.323686 -13.451681 -10.843899 -0.000000 0.000000 -0.000000 -0.000000 0.000000 -0.000000 0.000001 -0.000001 0.000000 20.267786 9.385399 4.401216 3.473943 0.114368 -6.571119 11.506435 -3.759894 -1.898458 0.571969 7.630013 0.939738 -6.518596 22.303561 12.020323 -0.000000 -0.000000 -0.000002 -0.000000 -0.000000 -0.000002 -0.000000 -0.000000 -0.000002 -37.550416 -4.776886 1.984127 -39.753128 0.603557 -58.185910 -0.000050 -73.959228 -0.000049 -113.501884 1.394013 42.928914 1.972208 1.660761 2.780782 19.473192 -1.474938 7.636932 -0.000003 -0.000001 -0.000001 -1.651507 2.356715 -39.411216 2.946440 5.081370 -60.193166 0.000000 0.000001 -0.000005 0.405920 5.507054 -52.453162 3.387150 5.308615 -65.057463 0.000004 -0.000002 0.000003 -0.074375 5.736806 -61.061420 4.373402 5.662034 -75.347512 0.000004 0.000001 0.000001 1.112133 6.599329 -65.474576 4.270369 5.634235 -74.300430 -0.000001 0.000002 -0.000002 0.000000 0.000000 0.000001 -40.987337 -8.354652 -8.864794 -47.294030 49.391587 113.270505 0.001931 96.781725 -0.001930 -46.308327 -24.712601 -19.567058 8.377145 -4.904148 11.021994 21.620190 -18.183890 -18.379204 0.000002 -0.000001 0.000001 -1.078289 1.443996 14.801076 1.323155 -3.253548 44.252468 -0.000001 -0.000001 -0.000000 3.413052 -7.186278 51.650249 6.296829 -4.359579 110.634673 -0.000000 0.000000 0.000001 -3.349035 -2.600433 57.010561 5.440858 -4.590889 99.698140 -0.000000 0.000001 0.000001 -3.996444 -3.303933 64.593843 4.058858 -4.618676 82.610503 0.000000 -0.000001 -0.000005 -0.000001 -0.000002 -0.000002 0.000002 -0.000004 0.000002 0.000002 -0.000004 0.000002 0.000002 -0.000004 0.000002 0.000002 -0.000004 0.000002 0.000002 -0.000004 0.000002 0.000002 -0.000001 0.000001 0.000002 -0.000004 0.000002 0.000002 -0.000004 0.000002 0.000002 -0.000001 0.000001 0.000002 0.000002 -0.000001 0.000002 0.000002 -0.000001 -0.000000 -0.000000 0.000000 
46.479958 78.714127 8.886135 -18.859991 -52.300790 -15.396484 -0.000000 -0.000000 -0.000000 -23.058153 33.720798 6.966301 32.490158 5.514954 -5.385986 0.545448 -2.343150 1.315508 -0.000000 -0.000002 -0.000001 -0.000000 -0.000002 -0.000000 -0.000000 0.000000 -0.000001 3.030322 -19.445931 3.113398 33.045743 -9.604711 2.138577 -25.857325 -12.234967 -8.869079 0.000000 -0.000000 0.000000 0.000000 -0.000000 0.000000 -0.000001 0.000000 0.000000 21.569135 9.494211 3.189595 3.128504 0.138147 -6.691348 11.403127 -3.836827 -1.884781 0.449644 7.615480 0.933723 -6.555097 22.256574 12.037320 -0.000002 -0.000001 -0.000001 -0.000002 -0.000001 -0.000001 -0.000002 -0.000001 -0.000001 -37.550655 -4.759104 1.949008 -40.775628 0.170484 -58.427016 0.000298 -73.164802 0.000301 -112.983842 2.153756 42.943018 1.891164 1.420046 2.768725 19.473192 -1.474937 7.636934 -0.000002 -0.000001 -0.000001 -1.697493 2.311003 -39.492331 2.946572 5.081455 -60.194628 0.000003 -0.000001 -0.000000 0.405919 5.507054 -52.453162 3.387146 5.308618 -65.057449 0.000003 -0.000001 -0.000002 -0.074374 5.736801 -61.061420 4.383128 5.664553 -75.446065 -0.000001 -0.000001 -0.000001 1.334485 6.690624 -65.266241 4.300725 5.642643 -74.609496 0.000000 -0.000004 0.000003 0.000001 0.000001 -0.000001 -40.977098 -8.403922 -8.858283 -47.378792 49.040782 113.635496 -0.000161 96.656828 0.000142 -45.942181 -24.275874 -19.715273 8.377146 -4.904147 11.021992 21.620190 -18.183888 -18.379202 0.000001 -0.000000 0.000001 -1.082958 1.436630 14.872774 1.342780 -3.273521 44.596767 -0.000000 0.000001 -0.000001 3.413051 -7.186278 51.650249 6.296828 -4.359579 110.634673 -0.000000 0.000001 -0.000004 -3.349037 -2.600431 57.010564 5.440858 -4.590890 99.698147 0.000001 0.000001 0.000000 -3.996448 -3.303933 64.593850 4.058857 -4.618675 82.610503 0.000001 -0.000001 0.000000 0.000001 -0.000001 -0.000001 -0.000000 0.000001 -0.000002 -0.000000 0.000001 -0.000002 -0.000000 0.000001 -0.000002 -0.000000 0.000001 -0.000002 -0.000000 0.000001 -0.000001 -0.000000 -0.000002 0.000001 -0.000000 0.000001 -0.000002 -0.000000 0.000001 -0.000001 -0.000000 -0.000002 0.000001 -0.000000 0.000001 -0.000000 -0.000000 0.000001 -0.000000 -0.000000 -0.000000 -0.000000 
